<?xml version="1.0" standalone="no"?>
<!DOCTYPE svg PUBLIC "-//W3C//DTD SVG 20010904//EN"
 "http://www.w3.org/TR/2001/REC-SVG-20010904/DTD/svg10.dtd">
<svg version="1.0" xmlns="http://www.w3.org/2000/svg"
 height="50px" width="150px" viewBox="0 0 74.000000 74.000000"
 preserveAspectRatio="xMidYMid meet">

<g transform="translate(0.000000,74.000000) scale(0.100000,-0.100000)"
fill="#000000" stroke="none">
<path style="fill:#ffffff;"  d="M40 630 l0 -70 70 0 70 0 0 70 0 70 -70 0 -70 0 0 -70z m120 0 l0
-50 -50 0 -50 0 0 50 0 50 50 0 50 0 0 -50z"/>
<path style="fill:#ffffff;" d="M80 630 c0 -27 3 -30 30 -30 27 0 30 3 30 30 0 27 -3 30 -30 30 -27
0 -30 -3 -30 -30z"/>
<path style="fill:#ffffff;" d="M200 672 c0 -16 8 -34 20 -42 11 -8 20 -18 20 -22 0 -4 -9 -8 -20 -8
-17 0 -20 -7 -20 -40 0 -38 -13 -54 -23 -27 -2 7 -8 8 -13 3 -5 -5 -4 -11 4
-13 18 -7 15 -23 -6 -23 -10 0 -24 -9 -32 -20 -8 -11 -22 -20 -32 -20 -11 0
-18 -7 -18 -20 0 -11 -4 -20 -10 -20 -5 0 -10 -9 -10 -19 0 -11 -6 -21 -12
-24 -7 -2 -10 -8 -6 -12 9 -10 38 19 38 39 0 9 8 16 20 16 11 0 20 -4 20 -10
0 -5 -4 -10 -10 -10 -5 0 -10 -4 -10 -10 0 -5 9 -10 20 -10 11 0 20 5 20 10 0
6 9 10 20 10 11 0 20 5 20 10 0 6 -9 10 -20 10 -16 0 -20 7 -20 30 0 23 4 30
20 30 22 0 27 -16 8 -23 -7 -2 -10 -8 -6 -12 4 -4 15 1 25 11 13 12 14 19 5
22 -6 2 -12 8 -12 13 0 14 37 11 44 -3 5 -10 7 -10 12 0 3 6 14 12 25 12 23 0
24 6 3 27 -13 14 -17 14 -24 2 -5 -7 -12 -10 -17 -6 -4 5 -1 12 7 18 13 8 13
10 0 18 -8 6 -11 14 -6 18 5 4 11 2 13 -4 3 -7 9 -13 14 -13 14 0 11 58 -3 62
-9 3 -8 9 4 22 17 16 19 16 44 -9 14 -14 23 -29 20 -33 -4 -3 -11 0 -16 8 -5
8 -12 11 -17 7 -4 -5 -1 -12 7 -18 13 -8 13 -10 0 -18 -8 -6 -11 -13 -7 -18 5
-4 12 -1 18 7 8 13 10 13 19 0 9 -13 11 -13 19 0 6 8 13 11 17 8 9 -10 -21
-38 -40 -38 -19 0 -21 -16 -3 -23 9 -4 8 -8 -3 -16 -8 -5 -11 -13 -7 -18 5 -4
12 -1 18 7 8 13 10 13 20 0 8 -11 12 -12 16 -2 8 21 23 13 23 -14 0 -38 -22
-54 -74 -54 -50 0 -54 -3 -30 -27 13 -14 17 -14 24 -2 5 7 12 10 17 6 4 -5 1
-13 -7 -18 -11 -8 -12 -12 -2 -16 19 -8 14 -23 -8 -23 -13 0 -20 -7 -20 -20 0
-13 7 -20 20 -20 11 0 20 5 20 10 0 6 7 10 16 10 34 0 59 51 32 64 -10 5 -10
7 0 12 6 3 12 12 12 21 0 8 7 22 16 30 13 14 17 14 25 2 8 -12 11 -12 20 1 8
11 12 12 16 3 10 -27 23 -11 23 27 0 33 -3 40 -20 40 -16 0 -20 -7 -20 -30 0
-34 -5 -37 -28 -13 -12 12 -13 18 -4 21 6 2 12 10 12 19 0 8 7 21 15 29 13 13
19 11 51 -22 29 -28 34 -38 23 -45 -12 -8 -12 -10 0 -18 11 -7 9 -14 -12 -35
-26 -26 -57 -35 -57 -16 0 16 -30 12 -48 -7 -12 -12 -13 -18 -4 -21 16 -5 16
-59 -1 -65 -6 -2 -9 -8 -5 -12 9 -9 58 40 58 59 0 8 -6 16 -12 19 -8 2 -9 8
-4 13 5 5 11 4 13 -3 3 -7 18 -13 34 -13 22 0 29 -5 29 -20 0 -12 7 -20 16
-20 19 0 49 28 40 38 -4 3 -11 0 -16 -7 -7 -12 -11 -12 -24 2 -9 8 -16 21 -16
27 0 17 26 40 44 40 19 0 21 16 4 23 -7 2 -9 8 -5 13 4 5 12 2 17 -5 7 -12 11
-11 26 3 15 15 15 19 3 28 -11 7 -11 11 -1 15 23 9 12 23 -18 23 -27 0 -30 3
-30 30 0 17 -4 30 -10 30 -5 0 -10 9 -10 20 0 11 5 20 10 20 6 0 10 14 10 30
0 23 -4 30 -20 30 -22 0 -27 -16 -7 -23 6 -2 9 -8 5 -12 -5 -5 -16 2 -27 13
-22 26 -31 28 -31 6 0 -20 -24 -44 -43 -44 -9 0 -18 -6 -20 -12 -4 -10 -8 -9
-16 2 -5 8 -13 11 -17 8 -3 -4 1 -15 11 -24 14 -14 18 -15 25 -3 5 7 13 10 17
5 4 -5 2 -11 -4 -13 -7 -3 -13 -13 -13 -24 0 -10 -4 -19 -10 -19 -5 0 -10 8
-10 18 0 10 -9 24 -20 32 -11 8 -20 22 -20 32 0 13 -8 18 -30 18 -16 0 -30 5
-30 10 0 6 14 10 30 10 17 0 30 -4 30 -10 0 -5 23 -10 50 -10 43 0 50 3 50 20
0 13 -7 20 -20 20 -11 0 -20 -4 -20 -10 0 -5 -13 -10 -30 -10 -16 0 -30 5 -30
10 0 15 -57 12 -63 -2 -4 -10 -8 -9 -16 2 -5 8 -13 11 -18 7 -4 -5 -1 -12 7
-17 8 -5 11 -12 7 -16 -4 -4 -15 3 -26 14 -24 29 -31 28 -31 -6z m280 -72 c0
-38 -13 -54 -23 -27 -2 7 -15 0 -34 -20 -17 -18 -38 -33 -47 -33 -9 0 -16 -4
-16 -10 0 -5 -4 -10 -10 -10 -15 0 -12 30 6 47 13 13 17 14 24 3 6 -10 14 -7
34 13 14 14 26 31 26 37 0 13 22 39 33 40 4 0 7 -18 7 -40z m40 -30 c0 -16 -4
-30 -10 -30 -5 0 -10 14 -10 30 0 17 5 30 10 30 6 0 10 -13 10 -30z m-160
-220 c0 -5 -4 -10 -10 -10 -5 0 -10 5 -10 10 0 6 5 10 10 10 6 0 10 -4 10 -10z"/>
<path style="fill:#ffffff;" d="M560 630 l0 -70 70 0 70 0 0 70 0 70 -70 0 -70 0 0 -70z m120 0 l0
-50 -50 0 -50 0 0 50 0 50 50 0 50 0 0 -50z"/>
<path style="fill:#ffffff;" d="M600 630 c0 -27 3 -30 30 -30 27 0 30 3 30 30 0 27 -3 30 -30 30 -27
0 -30 -3 -30 -30z"/>
<path style="fill:#ffffff;" d="M80 531 c0 -5 6 -11 13 -14 7 -2 8 -8 3 -13 -5 -5 -11 -4 -13 4 -3 6
-13 12 -24 12 -16 0 -19 -7 -19 -40 0 -44 8 -50 30 -20 8 11 22 20 32 20 11 0
18 7 18 20 0 11 5 20 10 20 6 0 10 5 10 10 0 6 -13 10 -30 10 -16 0 -30 -4
-30 -9z"/>
<path style="fill:#ffffff;" d="M640 521 c0 -11 6 -21 13 -24 7 -2 8 -8 3 -13 -5 -5 -11 -4 -13 4 -7
19 -23 14 -23 -8 0 -11 -7 -20 -15 -20 -9 0 -27 -11 -41 -25 l-26 -26 23 -19
22 -20 -23 -20 c-21 -18 -21 -20 -5 -36 14 -14 18 -15 25 -3 5 7 12 10 16 7 3
-4 -1 -15 -10 -24 -16 -15 -18 -15 -35 5 -10 12 -30 21 -45 21 -14 0 -26 5
-26 10 0 15 -29 12 -46 -4 -8 -8 -14 -22 -14 -30 0 -11 -9 -16 -30 -16 -16 0
-30 5 -30 10 0 6 -9 10 -20 10 -11 0 -20 -4 -20 -10 0 -18 -32 -11 -51 11 -16
19 -20 20 -34 6 -8 -9 -15 -21 -15 -27 0 -19 -33 -47 -38 -32 -5 16 -39 16
-45 0 -4 -10 -8 -10 -15 1 -9 12 -13 12 -27 -2 -15 -16 -15 -18 0 -33 14 -15
17 -14 34 5 10 12 26 21 35 21 19 0 22 -16 4 -23 -8 -2 -9 -8 -4 -13 5 -5 11
-4 13 4 7 19 23 14 23 -8 0 -13 7 -20 20 -20 11 0 20 5 20 10 0 14 37 12 44
-2 5 -10 7 -10 12 0 9 19 24 14 24 -8 0 -13 -7 -20 -20 -20 -11 0 -20 5 -20
10 0 6 -4 10 -10 10 -5 0 -10 -9 -10 -19 0 -11 -6 -21 -12 -24 -8 -2 -9 -8 -4
-13 5 -5 11 -4 13 4 7 19 23 14 23 -8 0 -11 5 -20 10 -20 6 0 10 5 10 10 0 6
5 10 10 10 14 0 12 -38 -2 -42 -9 -3 -8 -9 4 -21 20 -20 44 -22 51 -4 4 9 8 8
16 -3 10 -13 12 -13 22 0 8 11 12 12 16 3 8 -21 43 -15 43 7 0 18 7 20 59 20
38 0 61 -4 64 -12 2 -7 8 -10 12 -6 5 5 -2 16 -13 27 -26 22 -28 31 -6 31 23
0 44 -25 44 -54 0 -27 15 -35 23 -13 4 9 8 8 16 -3 5 -8 14 -11 18 -6 4 5 2
11 -4 13 -7 3 -13 18 -13 34 0 22 -5 29 -20 29 -11 0 -20 5 -20 10 0 18 35 11
50 -10 8 -11 18 -20 22 -20 13 0 9 58 -4 64 -10 5 -10 7 0 12 19 9 14 24 -8
24 -13 0 -20 -7 -20 -20 0 -11 -4 -20 -10 -20 -5 0 -10 14 -10 30 0 27 3 30
30 30 30 0 40 14 18 24 -10 5 -10 7 0 12 6 3 12 18 12 34 0 16 -6 31 -12 33
-10 4 -9 8 2 16 8 5 11 14 6 18 -5 4 -11 2 -13 -4 -3 -7 -13 -13 -23 -13 -10
0 -20 -6 -22 -12 -3 -9 -9 -8 -22 5 -15 15 -16 19 -2 32 8 8 26 15 40 15 19 0
26 5 26 19 0 11 6 22 13 24 9 4 8 8 -3 16 -13 10 -13 12 0 21 13 9 13 11 0 21
-11 8 -12 12 -2 16 6 2 12 13 12 24 0 14 -7 19 -30 19 -23 0 -30 -5 -30 -19z
m27 -76 c8 -9 12 -19 8 -23 -4 -4 -10 -1 -12 6 -5 14 -43 16 -43 2 0 -5 5 -10
10 -10 6 0 10 -4 10 -10 0 -5 -9 -10 -20 -10 -23 0 -27 23 -7 45 16 19 35 19
54 0z m13 -131 c0 -3 -7 -12 -15 -21 -20 -19 -32 -10 -14 11 14 15 29 21 29
10z m-200 -34 c0 -13 7 -20 20 -20 22 0 27 16 8 23 -7 2 -10 8 -6 12 5 5 16
-2 27 -13 20 -24 67 -30 74 -9 2 6 8 8 13 4 5 -4 2 -13 -6 -18 -11 -8 -12 -12
-2 -16 26 -10 10 -23 -28 -23 -33 0 -40 3 -40 20 0 11 -4 20 -10 20 -5 0 -10
-12 -10 -26 0 -15 -10 -35 -21 -45 l-22 -19 32 -29 c39 -36 39 -41 1 -41 -16
0 -30 5 -30 10 0 6 5 10 10 10 6 0 10 5 10 10 0 15 -70 12 -86 -4 -8 -8 -14
-22 -14 -30 0 -20 -27 -21 -46 -1 -13 13 -12 18 11 41 22 22 29 24 37 13 7
-11 11 -11 15 -1 2 6 13 12 24 12 10 0 19 5 19 10 0 6 -9 10 -20 10 -11 0 -20
-4 -20 -10 0 -5 -4 -10 -10 -10 -5 0 -10 9 -10 20 0 11 -4 20 -10 20 -5 0 -10
-7 -10 -16 0 -19 -28 -49 -38 -40 -3 4 0 11 7 16 11 6 8 13 -12 34 -22 22 -35
26 -82 26 -30 0 -55 2 -55 5 0 3 12 18 27 33 17 17 28 22 31 14 2 -7 12 -12
23 -12 10 0 19 -4 19 -10 0 -5 5 -10 10 -10 6 0 10 9 10 20 0 13 7 20 20 20
11 0 20 -4 20 -10 0 -5 -4 -10 -10 -10 -5 0 -10 -13 -10 -30 0 -16 5 -30 10
-30 6 0 10 5 10 10 0 15 57 12 64 -2 5 -10 7 -10 12 0 7 14 44 16 44 2 0 -5 5
-10 10 -10 15 0 12 30 -6 47 -13 14 -17 14 -25 2 -8 -12 -11 -12 -20 1 -8 11
-12 12 -16 3 -6 -15 -43 -17 -43 -3 0 6 8 10 18 10 10 0 24 9 32 20 8 11 22
20 32 20 11 0 18 -7 18 -20z m180 -30 c0 -5 -4 -10 -10 -10 -5 0 -10 5 -10 10
0 6 5 10 10 10 6 0 10 -4 10 -10z m-60 -80 c0 -27 -3 -30 -30 -30 -27 0 -30 3
-30 30 0 27 3 30 30 30 27 0 30 -3 30 -30z m-160 -80 c0 -5 -4 -10 -10 -10 -5
0 -10 5 -10 10 0 6 5 10 10 10 6 0 10 -4 10 -10z"/>
<path style="fill:#ffffff;" d="M440 270 c0 -5 5 -10 10 -10 6 0 10 5 10 10 0 6 -4 10 -10 10 -5 0
-10 -4 -10 -10z"/>
<path style="fill:#ffffff;" d="M560 170 c0 -5 5 -10 10 -10 6 0 10 5 10 10 0 6 -4 10 -10 10 -5 0
-10 -4 -10 -10z"/>
<path style="fill:#ffffff;" d="M260 460 c0 -13 -7 -20 -20 -20 -13 0 -20 -7 -20 -20 0 -11 -4 -20
-10 -20 -5 0 -10 -9 -10 -20 0 -22 16 -27 23 -7 2 6 8 9 12 5 4 -4 0 -15 -10
-24 -14 -15 -18 -15 -26 -3 -8 12 -10 12 -18 -1 -6 -8 -13 -11 -18 -7 -4 5 -1
12 7 17 8 5 11 13 6 17 -5 4 -11 2 -13 -4 -3 -7 -18 -13 -34 -13 -27 0 -29 -2
-29 -40 0 -22 5 -40 10 -40 6 0 10 9 10 20 0 11 4 20 8 20 4 0 14 -9 22 -20 8
-11 20 -20 28 -20 16 0 42 24 42 40 0 17 26 40 44 40 22 0 20 9 -6 31 l-21 19
21 19 c23 19 30 51 12 51 -5 0 -10 -9 -10 -20z m-80 -150 c0 -5 -4 -10 -10
-10 -5 0 -10 5 -10 10 0 6 5 10 10 10 6 0 10 -4 10 -10z"/>
<path style="fill:#ffffff;" d="M300 450 c0 -5 5 -10 10 -10 6 0 10 5 10 10 0 6 -4 10 -10 10 -5 0
-10 -4 -10 -10z"/>
<path style="fill:#ffffff;" d="M40 330 c0 -5 5 -10 10 -10 6 0 10 5 10 10 0 6 -4 10 -10 10 -5 0
-10 -4 -10 -10z"/>
<path style="fill:#ffffff;" d="M40 250 c0 -27 5 -50 10 -50 6 0 10 18 10 40 0 22 5 40 10 40 6 0 10
5 10 10 0 6 -9 10 -20 10 -17 0 -20 -7 -20 -50z"/>
<path style="fill:#ffffff;" d="M40 110 l0 -70 70 0 70 0 0 70 0 70 -70 0 -70 0 0 -70z m120 0 l0
-50 -50 0 -50 0 0 50 0 50 50 0 50 0 0 -50z"/>
<path style="fill:#ffffff;" d="M80 110 c0 -27 3 -30 30 -30 27 0 30 3 30 30 0 27 -3 30 -30 30 -27
0 -30 -3 -30 -30z"/>
<path style="fill:#ffffff;" d="M200 110 c0 -16 5 -30 10 -30 6 0 10 -9 10 -20 0 -22 15 -27 24 -7 5
10 7 9 12 0 10 -23 24 -13 24 17 0 22 -5 30 -18 30 -10 0 -24 9 -32 20 -20 28
-30 25 -30 -10z"/>
<path style="fill:#ffffff;" d="M500 50 c0 -5 14 -10 30 -10 17 0 30 5 30 10 0 6 -13 10 -30 10 -16
0 -30 -4 -30 -10z"/>
</g>
</svg>
